<svg width="349" height="87" viewBox="0 0 349 87" fill="none" xmlns="http://www.w3.org/2000/svg">
<g clip-path="url(#clip0_9_703)">
<path d="M50.9889 26.2363C50.9889 21.6823 47.9954 17.9907 44.3025 17.9907H8.43142C4.73855 17.9907 1.745 21.6823 1.745 26.2363" stroke="black" stroke-width="3.5" stroke-miterlimit="10"/>
<path d="M3.48999 67.9429C3.48999 72.3493 6.32765 75.922 9.82731 75.922H43.8252C47.3249 75.922 50.1625 72.3493 50.1625 67.9429" stroke="black" stroke-width="3.5" stroke-miterlimit="10"/>
<path d="M16.2095 29.7342H13.0875V63.573H16.2095V29.7342Z" fill="black"/>
<path d="M22.0146 29.7342H18.8926V63.573H22.0146V29.7342Z" fill="black"/>
<path d="M27.9291 29.7342H24.807V63.573H27.9291V29.7342Z" fill="black"/>
<path d="M33.6787 29.7342H30.5568V63.573H33.6787V29.7342Z" fill="black"/>
<path d="M39.5669 29.7342H36.4448V63.573H39.5669V29.7342Z" fill="black"/>
<path d="M16.2095 81.0441H13.0875V87H16.2095V81.0441Z" fill="black"/>
<path d="M22.0146 81.0441H18.8926V87H22.0146V81.0441Z" fill="black"/>
<path d="M27.9291 81.0441H24.8071V87H27.9291V81.0441Z" fill="black"/>
<path d="M33.6802 81.0441H30.5582V87H33.6802V81.0441Z" fill="black"/>
<path d="M39.567 81.0441H36.4451V87H39.567V81.0441Z" fill="black"/>
<path d="M22.0132 1.10126H18.8911V7.05714H22.0132V1.10126Z" fill="black"/>
<path d="M27.9291 1.10126H24.807V7.05714H27.9291V1.10126Z" fill="black"/>
<path d="M33.6786 1.10126H30.5566V7.05714H33.6786V1.10126Z" fill="black"/>
<path d="M42.3045 27.0574V23.1266H11.3425V27.0574H42.3045Z" fill="black"/>
<path d="M41.88 70.8881V66.9573H10.9181V70.8881H41.88Z" fill="black"/>
<path d="M41.88 13.0432V9.1123H10.9181V13.0432H41.88Z" fill="black"/>
</g>
<defs>
<clipPath id="clip0_9_703">
<rect width="349" height="87" fill="white"/>
</clipPath>
</defs>
</svg>
